<svg id="Guides" xmlns="http://www.w3.org/2000/svg" xmlns:xlink="http://www.w3.org/1999/xlink" viewBox="0 0 540.17 719.48"><defs><style>.cls-1,.cls-2{opacity:0.1;}.cls-3{isolation:isolate;}.cls-4{fill:#95c4de;}.cls-5{fill:#a9d6ea;}.cls-6,.cls-7{fill:#def6ff;}.cls-7{opacity:0.5;}.cls-8{fill:#c0c5d1;}.cls-9{fill:url(#linear-gradient);}.cls-10{fill:#649dd5;}.cls-11{fill:#8fc1ea;}.cls-12{opacity:0.8;}.cls-13{fill:#ff4caa;}.cls-14{fill:#e53399;}.cls-15{fill:#def0f9;}.cls-16{fill:#efb185;}.cls-17{fill:#c1dbe5;}.cls-18{fill:#111114;}.cls-19{fill:#ea49bd;}.cls-20{fill:#fe61ca;}.cls-21{fill:#dd9569;}.cls-22{fill:#e6a376;}.cls-23{fill:#221101;}.cls-24{fill:#341c09;}.cls-25{fill:#0a1014;}.cls-26{fill:#131c24;}.cls-27{fill:#1d1d21;}.cls-28{fill:#161619;}.cls-29{fill:#779f29;}.cls-30{fill:#1d2833;}.cls-31{fill:#9cbc35;}.cls-32{fill:#feffff;}.cls-33{fill:#f2b78f;}.cls-34{fill:#b4b9bc;}.cls-35{fill:#7d8183;}.cls-36{fill:#e3e5e5;}.cls-37{fill:#bdbbbb;}.cls-38{fill:#d2d0d0;}.cls-39{fill:#d5dfe6;}.cls-40{fill:#e9f0f4;}.cls-41{fill:#8cb230;}</style><linearGradient id="linear-gradient" x1="393.5" y1="75.13" x2="208.45" y2="500.51" gradientTransform="matrix(-1, 0, 0, 1, 577.21, -18.57)" gradientUnits="userSpaceOnUse"><stop offset="0" stop-color="#1a6bb2"/><stop offset="1" stop-color="#1b4b92"/></linearGradient></defs><polyline class="cls-1" points="167.99 719.48 357.01 610.35 243.04 544.12 54.05 653.25 167.99 719.48"/><g class="cls-2"><polygon points="540.17 531.84 381.01 624.33 13.53 412.16 176.52 316.34 540.17 531.84"/></g><g class="cls-3"><polygon class="cls-4" points="392.99 516.92 392.94 534.54 307.13 584.38 307.22 566.76 392.99 516.92"/><polygon class="cls-5" points="307.22 566.76 307.13 584.38 103.84 467.04 103.92 449.41 307.22 566.76"/><polygon class="cls-6" points="392.99 516.92 307.22 566.76 103.92 449.41 189.69 399.56 392.99 516.92"/><polygon class="cls-7" points="392.99 516.92 103.92 449.41 103.92 449.41 189.69 399.56 392.99 516.92"/></g><g class="cls-3"><polygon class="cls-4" points="313.74 533.94 329 525.09 329.45 366.48 314.23 375.33 313.74 533.94"/><polygon class="cls-8" points="314.23 375.33 329.45 366.48 191.35 286.73 176.11 295.6 314.23 375.33"/><polygon class="cls-5" points="176.11 295.6 175.63 454.23 313.74 533.94 314.23 375.33 176.11 295.6"/></g><polygon class="cls-4" points="452.82 552.05 467.55 547.93 530.63 236.85 515.91 240.97 452.82 552.05"/><polygon class="cls-5" points="515.91 240.97 530.63 236.85 120.34 0 105.64 4.08 515.91 240.97"/><polygon class="cls-6" points="105.64 4.08 42.53 315.18 452.82 552.05 515.91 240.97 105.64 4.08"/><polygon class="cls-9" points="116.62 28.89 60.57 309.1 440.47 528.89 498.7 245.05 116.62 28.89"/><polygon class="cls-10" points="164.58 91.98 162.15 102.73 222.18 137.4 224.59 126.63 164.58 91.98"/><path class="cls-10" d="M283.67,415.93,144.6,335.63l30.22-133.92L313.89,282ZM166.89,282,285,350.13l13.59-60.25-118-68.17L166.89,282Z" transform="translate(-37.04 -18.57)"/><polygon class="cls-10" points="148.36 136.29 146.07 146.42 285.14 226.7 287.42 216.59 148.36 136.29"/><polygon class="cls-10" points="327.93 257.65 326.04 266.06 409.09 314 410.98 305.59 327.93 257.65"/><polygon class="cls-10" points="332.22 238.63 330.31 247.08 413.36 295.03 415.27 286.58 332.22 238.63"/><path class="cls-11" d="M418.42,500.47,312.36,439.23l46.43-205.75,106.06,61.24Zm-89.22-65.7,83.05,48,13.49-59.79L342.68,375,329.2,434.77Zm24.45-108.33,83,47.94,1.91-8.44L355.55,318l-1.9,8.44Zm13.71-60.79,83,48,1.92-8.45-83.06-47.94-1.9,8.44Zm-9.43,41.78L441,355.38l1.9-8.44-83-47.95-1.91,8.44Zm5.15-22.8,83.05,47.95,1.89-8.42-83-47.94-1.89,8.41Z" transform="translate(-37.04 -18.57)"/><polygon class="cls-10" points="143.21 159.09 140.94 169.21 279.99 249.5 282.28 239.39 143.21 159.09"/><polygon class="cls-10" points="282.64 160.14 280.2 170.9 431.8 258.43 434.23 247.67 282.64 160.14"/><g class="cls-12"><path class="cls-10" d="M127.77,345,427,517.77,485.3,259.21,186.12,86.48ZM178,187.78l2.27-10.12L319.32,258h0L317,268.07l-88.16-50.9L178,187.78Zm7.42-32.92,139.06,80.3-2.28,10.12L183.11,165l2.29-10.13Zm2-8.86,2.31-10.14,139.05,80.29-2.27,10.14L187.38,146ZM476.57,262.84l-5.14,22.79L192.26,124.45l5.14-22.79L476.57,262.84ZM418.42,500.47,312.36,439.23l46.43-205.75,106.06,61.24L418.42,500.47ZM313.89,282,283.67,415.93,144.6,335.63l30.22-133.92L313.89,282Z" transform="translate(-37.04 -18.57)"/></g><polygon class="cls-10" points="152.65 117.28 150.34 127.43 289.43 207.72 291.7 197.58 152.65 117.28"/><polygon class="cls-10" points="305.64 356.42 292.16 416.2 375.21 464.15 388.69 404.36 305.64 356.42"/><polyline class="cls-11" points="439.53 244.27 434.39 267.06 155.22 105.88 160.36 83.09"/><polygon class="cls-11" points="280.2 170.9 431.8 258.43 434.23 247.67 282.64 160.14 280.2 170.9 280.2 170.9"/><polygon class="cls-11" points="162.15 102.73 222.18 137.4 224.59 126.63 164.58 91.98 162.15 102.73 162.15 102.73"/><polygon class="cls-10" points="322.8 280.41 320.89 288.86 403.94 336.81 405.84 328.36 322.8 280.41"/><polygon class="cls-10" points="318.51 299.43 316.61 307.87 399.65 355.81 401.55 347.37 318.51 299.43"/><polygon class="cls-13" points="398.57 187.6 382.14 268.5 427.81 294.34 448.71 288 462.71 283.43 473.46 230.84 398.57 187.6"/><polygon class="cls-14" points="462.71 283.43 436.14 271.75 427.81 294.34 462.71 283.43"/><polygon class="cls-6" points="408.45 210 407.46 214.84 454.1 242.38 455.21 237 408.45 210"/><polygon class="cls-6" points="404.91 224.78 403.92 229.63 450.58 257.17 451.67 251.78 404.91 224.78"/><polygon class="cls-6" points="400.34 238.72 399.37 243.57 446.01 271.1 447.12 265.72 400.34 238.72"/><g class="cls-2"><path d="M59.75,524.07c-30.15,17.4-30.29,45.62-.35,63s78.68,17.42,108.82,0,30.31-45.63.36-63S89.9,506.66,59.75,524.07Z" transform="translate(-37.04 -18.57)"/></g><path class="cls-15" d="M107.32,243.09s1.22-13.91,21-12.9a346.93,346.93,0,0,1,39.46,4.64L200.38,203s8.52,1.81,10.06,7.58c0,0-22.55,38.6-38.73,44.78C171.71,255.34,100.55,273.6,107.32,243.09Z" transform="translate(-37.04 -18.57)"/><path class="cls-16" d="M202.06,203.47s1.66-10,4.46-13.55a17.86,17.86,0,0,1,6.76-5.61c1.17-.42-1.33,4.24-2.19,5.71s-.45,5.66,7.65-1.17,6.87-4.42,6.95-3.53-5.42,17.94-15.65,24.17C210,209.49,208.22,205.8,202.06,203.47Z" transform="translate(-37.04 -18.57)"/><path class="cls-17" d="M171.71,255.34c16.18-6.18,38.73-44.78,38.73-44.78a8.13,8.13,0,0,0-2.62-3.92c-5.4,7.31-21.31,28.58-31.61,39.73-12.53,13.57-69,2.66-69.22,2.2C109.79,271.22,171.71,255.34,171.71,255.34Z" transform="translate(-37.04 -18.57)"/><path class="cls-18" d="M115.55,512.77s7.8,1.87,5.47,6.27-12,10.49-13.45,13.28-9.78,12.38-12.08,11.23-8.66-.29-6.9-11.95S105.07,511.35,115.55,512.77Z" transform="translate(-37.04 -18.57)"/><path class="cls-18" d="M105.25,537.75s-6,10.34,3,14.77,7.27-2,26.74,7.21,23.91-.89,23.9-3.35S146,547,141.76,544.94s-12.29-5.86-12.29-5.86l-24.32-4.78Z" transform="translate(-37.04 -18.57)"/><path class="cls-19" d="M104.9,356.24s-6.12,67.91-6.79,75.56S83.6,499,86.39,525.75c0,0,13.52,16.15,27.92,2.46,0,0,10.83-75.1,16.12-91.78s8.6-68.89,8.6-68.89Z" transform="translate(-37.04 -18.57)"/><path class="cls-19" d="M128.49,350.18s-5.18,43.86-10.17,87.37c0,0-14.59,85.44-15,98.11,0,0,26.08,12.15,31.37-.2,0,0,14-75,17.79-90.47s17.15-63.78,15.91-90.17S128.49,350.18,128.49,350.18Z" transform="translate(-37.04 -18.57)"/><path class="cls-20" d="M103.34,535.66c.39-12.67,15-98.11,15-98.11,3.36-29.3,7.4-63.6,9.27-79.71l17.88,7.26s3.58,39.55-7.74,87.24c-8.74,36.93-16.56,73.42-19.65,88A70.66,70.66,0,0,1,103.34,535.66Z" transform="translate(-37.04 -18.57)"/><path class="cls-20" d="M86.39,525.75C83.6,499,97.45,439.44,98.11,431.8c.65-7.29,3.79-65.55,4.3-71.42l16.38,9.16s.45,49-6.71,76.22c-6.55,24.79-8.08,74-11.42,87.88C92.41,532.91,86.39,525.75,86.39,525.75Z" transform="translate(-37.04 -18.57)"/><path class="cls-15" d="M113.26,230.34s-15.13,5.55-9.76,30.81,9.31,41.65,7.83,50.65-7.6,42.34-10.19,48.33c0,0-2.27,10.3,36,19.94,0,0,34.63,8,31.24-17.46s4.43-52.08,6.45-61.51,9.93-27.89-12.5-43.47S128.63,231.12,113.26,230.34Z" transform="translate(-37.04 -18.57)"/><path class="cls-16" d="M131.55,220.24s.09,12.88-5.17,20.35c-4.78,6.77,24.45,16.75,25.89,10.13.16-.7-4.36-12.3,4.35-24.47C161.16,219.88,131.55,220.24,131.55,220.24Z" transform="translate(-37.04 -18.57)"/><path class="cls-21" d="M126.48,241.06c3.91-5.56,4.88-14.09,5.1-18.12l20.66,13.32s0,0,0,.05c-.81.1-16,2.19-20.41,12.45C127.52,246.41,124.74,243.53,126.48,241.06Z" transform="translate(-37.04 -18.57)"/><path class="cls-16" d="M166.92,190s3.37,12.07,1.3,21.91c-2.2,10.59-.84,12.93-2.06,17.61-.51,2-1,5.06-3.23,6.74-3.65,2.82-10.59,3.24-19.44-1.17-10.69-5.35-20.72-22-14.38-35.27S151.4,176.87,166.92,190Z" transform="translate(-37.04 -18.57)"/><path class="cls-22" d="M127.92,214.8c5.88-11.91,18.64-25.55,18.63-26.35,0-.49,4-2.38,8.41-4.38a25.17,25.17,0,0,1,12,5.94,63.75,63.75,0,0,1,1.49,7.7c-3,2.67-8.8,5.45-9.89,7.89-2.6,5.71-2.54,14.85-1.21,19s-6.5,9.21-5.39,12.9a.79.79,0,0,1,0,.48,32.85,32.85,0,0,1-8.42-2.9C136.66,231.67,130.1,223.62,127.92,214.8Z" transform="translate(-37.04 -18.57)"/><path class="cls-23" d="M170.75,185.64A14.37,14.37,0,0,1,161,199.4c-6.18,2.21-6.72,11.71-6.63,13.49s.91,10,.07,10.89c-1.59,1.81-5.47-4.84-7.69-4.66-5.69.44-4.11,5.86.32,11.86,4.71,6.36-9.66,7.14-15.64,1.64-3.2-2.91-4.29-4.57-7.83-14.14-5.14-13.94-3.69-29.83,12.88-36.55S160.63,188.38,170.75,185.64Z" transform="translate(-37.04 -18.57)"/><path class="cls-24" d="M131.38,232.62c-3.2-2.91-4.29-4.57-7.83-14.14-5.14-13.94-3.69-29.83,12.88-36.55s24.2,6.45,34.32,3.71a14.24,14.24,0,0,1-.53,4c-5,.24-18.87,1.38-23,6.81-5.12,6.69-9.62,3.83-10.26,12.78-.63,8.62-4.11,19.6,9.74,26.07C140.91,238.52,133.7,234.77,131.38,232.62Z" transform="translate(-37.04 -18.57)"/><path class="cls-17" d="M151,246.57l8.84,9.3s-31.36,5.3-38.6-10.6c-1-2.25,1.32-9.14,6.77-9.85C128.05,235.42,127.71,247.64,151,246.57Z" transform="translate(-37.04 -18.57)"/><path class="cls-17" d="M170.76,361.77c-3.41-25.54,2.09-51.24,4.11-60.67s9.71-27.52-11.88-43c-8.58,4-21.36,13.15-16.79,31.64,5.67,22.86,3,70.75,2.27,91.53C158.22,381.27,172.84,377.44,170.76,361.77Z" transform="translate(-37.04 -18.57)"/><path class="cls-16" d="M222.38,215.08s-1-7.46,1.35-10,7.4-12.82,9.57-14.22,1.33,2.73.67,5.46-.26,8,.69,7.38,5.29,2.47,4.49,6.31-7,10-7.13,10.87S222.38,215.08,222.38,215.08Z" transform="translate(-37.04 -18.57)"/><path class="cls-15" d="M152.22,275.12s-2.61-12.33,14.75-16.67a314.37,314.37,0,0,1,35.32-6.36L222.12,216s7.85-.67,10.68,3.91c0,0-9.35,39.28-21.71,48.88C211.09,268.79,154.37,303.28,152.22,275.12Z" transform="translate(-37.04 -18.57)"/><path class="cls-25" d="M146.26,648.38s11,9.23,8.69,18.88c0,0-3.68,3.91-7.13-3S140.74,648.16,146.26,648.38Z" transform="translate(-37.04 -18.57)"/><path class="cls-18" d="M155,668.21s-16.63,5.72-19.42.29-5.89-9.75-7.9-11.7-15.76-25-11.26-28.72,11.09,2.86,13.06,4.46,22.87,17.83,22.87,17.83Z" transform="translate(-37.04 -18.57)"/><path class="cls-26" d="M292.69,565.78s-58.24,33.39-71.44,44.75c-10.94,9.39-71.53,38.38-71.53,38.38s2.85,5.74,4.92,18.75c0,0,55.36-.8,90.19-32.78,0,0,116.89-24.35,106.91-84.66C351.74,550.22,313.21,557.17,292.69,565.78Z" transform="translate(-37.04 -18.57)"/><path class="cls-27" d="M127.63,656.8c-1.82-1.75-12.86-20.21-12-26.82,2-.28,5.11.07,6.9,4.37,2.74,6.65,11.15,21.87,12.7,23.81,1.31,1.66,8.85,8.94,7.62,12.63-3.32.2-6.27-.27-7.3-2.29C132.72,663.09,129.64,658.75,127.63,656.8Z" transform="translate(-37.04 -18.57)"/><path class="cls-28" d="M180.14,697.21s-18.84,2.95-20.82-2a44.85,44.85,0,0,0-5.9-10.79c-1.61-1.86-11.64-22.93-7.43-25.76s9.36,3.37,10.94,4.91,18.78,17.07,18.78,17.07Z" transform="translate(-37.04 -18.57)"/><path class="cls-27" d="M153.42,684.44c-1.43-1.66-9.51-18.55-8.26-24.18,1.75-.08,4.42.47,5.62,4.34,1.86,6,7.92,19.83,9.1,21.64,1,1.54,6.94,8.47,5.57,11.56-2.87-.1-5.39-.75-6.13-2.57A44.85,44.85,0,0,0,153.42,684.44Z" transform="translate(-37.04 -18.57)"/><path class="cls-29" d="M317.85,457.57s11,1.36,10.6,13.91-12,66.73-25.35,77.49-13-14.86-13-14.86S298.25,454.81,317.85,457.57Z" transform="translate(-37.04 -18.57)"/><path class="cls-30" d="M302.45,560.47s9.68,28.7,14.68,34.95c0,0-58.22,33.4-71.43,44.76-10.94,9.4-72.85,37.83-72.85,37.83s4.17,6.29,6.25,19.3c0,0,55.35-.8,90.19-32.78,0,0,116.89-24.35,106.91-84.66C376.2,579.87,337.53,595.26,302.45,560.47Z" transform="translate(-37.04 -18.57)"/><path class="cls-31" d="M349.42,461.87s31.6,17.76,32.3,19.92,4.35,3.86-6,28.45c0,0-9.8,21.71-2.82,48.42,4.05,15.47,3.4,20.7,3.4,20.7s-12.27,26.3-47.2,13.46c-7-2.6-26.74-21.38-30.32-29.11,0,0,11.1-13.66,6.74-40.33s-6.83-61.3,8.3-65.92C313.8,457.46,317.65,452.82,349.42,461.87Z" transform="translate(-37.04 -18.57)"/><path class="cls-32" d="M339.59,453.31S319.23,464,328.31,479.37l-9.58,5.27S309.35,457.79,339.59,453.31Z" transform="translate(-37.04 -18.57)"/><path class="cls-16" d="M352.65,442.5s-8.56,13-1.78,21.78c3.79,4.91-5.15,16.55-20.38,15.61,0,0-6.82-1.67-6.12-4.13,1.58-5.62-.68-8.78-3.11-13.08S352.65,442.5,352.65,442.5Z" transform="translate(-37.04 -18.57)"/><path class="cls-21" d="M350.87,464.28a4.17,4.17,0,0,1,.8,2c-5.71-5.81-16.7-6.25-16.7-6.25l14.51-16,1.46-.71.44,1.43C349.29,448.85,345.82,457.75,350.87,464.28Z" transform="translate(-37.04 -18.57)"/><path class="cls-33" d="M324.37,475.76c1.44-8.91-.68-8.78-3.11-13.08-.65-1.17,1.42-3.22,4.76-5.59a11,11,0,0,1,2.48,2.8c5.9,9.1,5.86,16.22,5.16,20a14.61,14.61,0,0,1-3.17,0C328.67,479.62,323.93,478.51,324.37,475.76Z" transform="translate(-37.04 -18.57)"/><path class="cls-16" d="M355.81,435.22s-3.71,17.2-15.55,25c-10.48,6.92-22.7,11.47-24.94-1.06-1.79-10-6.69-35.3,2.11-40.39,11.33-6.55,15.48-14.64,28.58-9.81C346,409,361,415.85,355.81,435.22Z" transform="translate(-37.04 -18.57)"/><path class="cls-22" d="M355.81,435.22a38.63,38.63,0,0,1-15.5,25.24,48.51,48.51,0,0,1-9.92,5.27c5.51-4.05,6.07-5.31,10.35-10.29s-6.36-3.06.91-15.79c2.47-4.34-9.66,1.25-12.37,1.18-16.15-.41-14.94-9.64-15.25-13.56a28.09,28.09,0,0,1,1.32-4.77l1.53-2.94c.18-.26.37-.54.55-.78a54.84,54.84,0,0,1,5.23-5.76c6.92.15,26.57.57,27,.68s3.64,4.65,6.77,9A26.3,26.3,0,0,1,355.81,435.22Z" transform="translate(-37.04 -18.57)"/><path class="cls-24" d="M348.74,451.88s13.06-12,8.53-29.23A20.14,20.14,0,0,0,339.44,407c-7.33-.87-21.46-.42-27.07,14.41-1.74,4.63-.56,14.77,17.61,10,2.61-.68,9.51-1.59,12,.63s2.71,6.34,1.53,9.86c-1,3.08,1.68,3.41,2.07,2.75s3.86-9.44,7.15-6C355.65,441.76,349.05,451.29,348.74,451.88Z" transform="translate(-37.04 -18.57)"/><path class="cls-23" d="M348.74,451.88c.31-.59,6.91-10.12,3.95-13.23-3.29-3.43-6.78,5.36-7.15,6s-3.1.33-2.07-2.75c1.18-3.52.91-7.65-1.53-9.86-2.22-2-8.28-1-12-.63,3-1.93,9-2.61,11.17-7.63,2.86-6.72,6.91-9.87,10.71-11.05a20.93,20.93,0,0,1,5.41,9.91C361.8,439.88,348.74,451.88,348.74,451.88Z" transform="translate(-37.04 -18.57)"/><path class="cls-32" d="M348.76,460.07a26.53,26.53,0,0,1-20.45,19.3l5,12.12S364.43,475.88,348.76,460.07Z" transform="translate(-37.04 -18.57)"/><path class="cls-24" d="M312.37,421.38S309.69,438,330.79,432c0,0,10.54-2.81,14.79-12.6.89-2.08,3.33-5.53,6.9-5.91,0,0-5.61-8-20.13-6.94-6.84.48-13.93,7.13-15.68,8.21S317.75,422.72,312.37,421.38Z" transform="translate(-37.04 -18.57)"/><path class="cls-16" d="M242.71,544s-15.2,2.84-25.57-1.48-7.88-4.66-7.08-6.23c1.74-3.42,15.43-2.47,18-3.14s-2.11-2.67-3.14-4.41-3.44-3.78-2.6-4.36,2.92-1.15,6.78,1.92,13.58,7.24,13.58,7.24Z" transform="translate(-37.04 -18.57)"/><path class="cls-29" d="M240.52,532.12a25.89,25.89,0,0,1,.81,6.75,15.3,15.3,0,0,1-2.18,7.8s49.59,10,62.18,3.56c0,0,12.19-18.77-6.45-23.77Z" transform="translate(-37.04 -18.57)"/><g class="cls-3"><polygon class="cls-34" points="298.21 576.91 298.42 579.43 261.5 605.63 261.29 603.09 298.21 576.91"/><polygon class="cls-35" points="261.29 603.09 261.5 605.63 192.75 573.86 192.51 571.33 261.29 603.09"/><polygon class="cls-36" points="298.21 576.91 261.29 603.09 192.51 571.33 229.42 545.14 298.21 576.91"/></g><g class="cls-3"><polygon class="cls-37" points="250.32 559.44 253.06 556.89 264.47 602.96 261.72 605.5 250.32 559.44"/><polygon class="cls-38" points="178.44 526.22 181.18 523.69 253.06 556.89 250.32 559.44 178.44 526.22"/><polygon class="cls-39" points="250.32 559.44 261.72 605.5 189.83 572.29 178.44 526.22 250.32 559.44"/><polygon class="cls-40" points="250.32 559.44 250.32 559.44 189.83 572.29 178.44 526.22 250.32 559.44"/></g><path class="cls-16" d="M314.23,588.32s-16.76,13.85-33.18,10.6c0,0,0-4.26,7.31-5.86s10.09-7.17,10-8-5.77-1.34-8.34-1.46-5.63-3.63.6-4,16.88-2.77,23-1.45C313.6,578.11,319.63,584.57,314.23,588.32Z" transform="translate(-37.04 -18.57)"/><path class="cls-29" d="M371.15,478.47s11-2,14.3,10.08,8.48,67.28-1,81.52-71.27,21.75-71.27,21.75c4.44-9.4-1.87-17.15-1.87-17.15l53.36-22.32S351.63,481.7,371.15,478.47Z" transform="translate(-37.04 -18.57)"/><path class="cls-41" d="M364.67,552.35l-53.36,22.32a18.85,18.85,0,0,1,2.79,5.85C326.23,576.66,371,570,370,560.35c-5.36-49.71-5.86-75.71-5.86-75.71l-2,5.92C357.15,511.57,364.67,552.35,364.67,552.35Z" transform="translate(-37.04 -18.57)"/></svg>